Coordinates
version=1
nRows=4
nColumns=124
inDegrees=yes

Units are S.I. units (second, meters, Newtons, ...)
If the header above contains a line with 'inDegrees', this indicates whether rotational values are in degrees (yes) or radians (no).

endheader 
time	pelvis_tilt	pelvis_list	pelvis_rotation	pelvis_tx	pelvis_ty	pelvis_tz	hip_flexion_l	hip_adduction_l	hip_rotation_l	hip_flexion_r	hip_adduction_r	hip_rotation_r	knee_angle_l	knee_angle_r	ankle_angle_l	ankle_angle_r	subtalar_angle_l	subtalar_angle_r	mtp_angle_l	mtp_angle_r	lumbar_extension	lumbar_bending	lumbar_rotation	arm_flex_l	arm_add_l	arm_rot_l	arm_flex_r	arm_add_r	arm_rot_r	elbow_flex_l	elbow_flex_r	glut_med1_l/activation	glut_med2_l/activation	glut_med3_l/activation	glut_min1_l/activation	glut_min2_l/activation	glut_min3_l/activation	semimem_l/activation	semiten_l/activation	bifemlh_l/activation	bifemsh_l/activation	sar_l/activation	add_long_l/activation	add_brev_l/activation	add_mag1_l/activation	add_mag2_l/activation	add_mag3_l/activation	tfl_l/activation	pect_l/activation	grac_l/activation	glut_max1_l/activation	glut_max2_l/activation	glut_max3_l/activation	iliacus_l/activation	psoas_l/activation	quad_fem_l/activation	gem_l/activation	peri_l/activation	rect_fem_l/activation	vas_med_l/activation	vas_int_l/activation	vas_lat_l/activation	med_gas_l/activation	lat_gas_l/activation	soleus_l/activation	tib_post_l/activation	flex_dig_l/activation	flex_hal_l/activation	tib_ant_l/activation	per_brev_l/activation	per_long_l/activation	per_tert_l/activation	ext_dig_l/activation	ext_hal_l/activation	ercspn_l/activation	intobl_l/activation	extobl_l/activation	glut_med1_r/activation	glut_med2_r/activation	glut_med3_r/activation	glut_min1_r/activation	glut_min2_r/activation	glut_min3_r/activation	semimem_r/activation	semiten_r/activation	bifemlh_r/activation	bifemsh_r/activation	sar_r/activation	add_long_r/activation	add_brev_r/activation	add_mag1_r/activation	add_mag2_r/activation	add_mag3_r/activation	tfl_r/activation	pect_r/activation	grac_r/activation	glut_max1_r/activation	glut_max2_r/activation	glut_max3_r/activation	iliacus_r/activation	psoas_r/activation	quad_fem_r/activation	gem_r/activation	peri_r/activation	rect_fem_r/activation	vas_med_r/activation	vas_int_r/activation	vas_lat_r/activation	med_gas_r/activation	lat_gas_r/activation	soleus_r/activation	tib_post_r/activation	flex_dig_r/activation	flex_hal_r/activation	tib_ant_r/activation	per_brev_r/activation	per_long_r/activation	per_tert_r/activation	ext_dig_r/activation	ext_hal_r/activation	ercspn_r/activation	intobl_r/activation	extobl_r/activation	
          1.18547347	         -7.53805069	         -7.64337758	         -9.05896004	          0.76330931	          1.00732121	         -0.02144838	         25.84125075	         -3.33083971	         16.01369624	         -7.44304900	         -1.76049573	         -6.86932476	        -30.88346802	        -28.76178885	          7.04536264	         -6.09813205	         -6.85443495	         17.79786789	         14.85779624	          4.96378075	         -4.91526231	          6.40296892	         14.74578535	        -13.69347810	        -14.22108252	          0.42553612	         27.86757100	        -13.50116270	          0.43444900	          0.24251599	        100.29034484	          0.64704953	          0.83006166	          0.75016040	          0.66075333	          0.68221184	          0.68543250	          0.30301321	          0.36265614	          0.33134889	          0.14569473	          0.42123455	          0.12893149	          0.28458511	          0.43371068	          0.51769953	          0.55433793	          0.51684110	          0.48081187	          0.38538871	          0.64356075	          0.43750636	          0.44403107	          0.05046868	          0.05476585	          0.50137902	          0.53753864	          0.65931735	          0.71356830	          0.69058337	          0.73080378	          0.25256391	          0.73470754	          0.73296896	          0.28734198	          0.78685361	          0.60557111	          0.63097371	          0.22649516	          0.51739639	          0.56431487	          0.47012305	          0.26581229	          0.47976083	          0.22873027	          0.05002115	          0.05020949	          0.75757210	          0.45665284	          0.24039957	          0.67699405	          0.63704577	          0.55235084	          0.55731231	          0.56327789	          0.47468535	          0.67842977	          0.58377287	          0.57448671	          0.53007074	          0.50778720	          0.51747921	          0.48141914	          0.65679439	          0.58420806	          0.57774440	          0.54967457	          0.48818486	          0.40348107	          0.61621803	          0.65182955	          0.34172326	          0.48792284	          0.46445511	          0.33621827	          0.21841457	          0.21241565	          0.19036369	          0.48394704	          0.56640239	          0.05026001	          0.33472071	          0.52579965	          0.48664501	          0.78650543	          0.47946588	          0.31074937	          0.64740488	          0.75937311	          0.69131065	          0.28558022	          0.18314745	          0.05021752	
          1.21751329	         -6.85080865	         -8.43950327	         -8.69415385	          0.78746354	          1.01462320	         -0.02269874	         23.13851734	         -4.16131102	         15.14049160	         -6.31354977	         -1.68293713	         -6.82447768	        -29.70832651	        -28.25279155	          6.13433323	         -3.85728681	         -6.82971116	         16.21951749	         17.55187327	          3.21706444	         -5.35489395	          7.01822446	         14.18407803	        -13.87907295	        -13.96429970	          1.03920731	         27.98195104	        -13.47922861	         -0.23628707	          1.33863886	         95.17588131	          0.64397636	          0.81817035	          0.72356054	          0.65894668	          0.68028796	          0.68200309	          0.29497204	          0.34774899	          0.31634092	          0.13810257	          0.42228319	          0.10399098	          0.28133319	          0.43083964	          0.51405613	          0.53922875	          0.52112252	          0.46876743	          0.38289238	          0.61635994	          0.38977172	          0.40464889	          0.05041492	          0.05125648	          0.49672207	          0.54028136	          0.65033675	          0.73520451	          0.68028062	          0.71858572	          0.25372773	          0.79845167	          0.79216817	          0.30832751	          0.81593904	          0.61686313	          0.64312282	          0.16593628	          0.51237844	          0.57158826	          0.44054230	          0.20879225	          0.45271771	          0.21376648	          0.05000903	          0.05017867	          0.72772517	          0.44727283	          0.24309135	          0.66253814	          0.62522332	          0.55086656	          0.55492757	          0.56487791	          0.47222926	          0.70368683	          0.58485654	          0.58124859	          0.54355168	          0.51553698	          0.51717346	          0.48375710	          0.64724782	          0.58661198	          0.58624716	          0.55143534	          0.48811338	          0.41040842	          0.60374013	          0.63733165	          0.38036899	          0.50765961	          0.47310257	          0.30001195	          0.22917447	          0.22559131	          0.19450863	          0.47023737	          0.56133168	          0.05018863	          0.25864983	          0.52359166	          0.48218519	          0.82533561	          0.50668731	          0.32257229	          0.66520354	          0.75894589	          0.69119759	          0.27997449	          0.17167513	          0.05024671	
          1.24955312	         -5.95385991	         -9.20868002	         -8.30307275	          0.81115219	          1.02173825	         -0.02352691	         20.28572281	         -4.97939298	         13.99649049	         -5.16145127	         -1.41744653	         -6.86833351	        -28.55257724	        -27.58055384	          4.97169655	         -1.88794214	         -7.04038794	         14.26915138	         20.48221917	          2.00931596	         -5.79296779	          7.66545133	         13.38485431	        -13.99728845	        -13.72268262	          1.97587337	         27.46250075	        -13.46432291	         -0.67391254	          3.43982717	         89.51552023	          0.64422588	          0.80359554	          0.69068731	          0.65833222	          0.68100606	          0.68228568	          0.29368681	          0.33489416	          0.31088515	          0.14469447	          0.42022250	          0.09243816	          0.28113753	          0.43051593	          0.51259417	          0.52424216	          0.53278268	          0.45772948	          0.38309167	          0.59590869	          0.35357001	          0.37352038	          0.05141505	          0.05648903	          0.49010045	          0.54412783	          0.63855610	          0.75104607	          0.66350896	          0.69946745	          0.25471468	          0.84704304	          0.83986501	          0.32761329	          0.84107710	          0.62640385	          0.65280071	          0.11775168	          0.51946084	          0.57953284	          0.41296427	          0.16050986	          0.42248330	          0.19933700	          0.05002357	          0.05032846	          0.68084568	          0.43365667	          0.24354119	          0.64776091	          0.60834001	          0.53882979	          0.54851732	          0.52182489	          0.45846424	          0.68473071	          0.58181219	          0.58579296	          0.55312223	          0.52075707	          0.51656585	          0.47876326	          0.63539133	          0.59087032	          0.58347342	          0.54987767	          0.48016491	          0.39458272	          0.60767741	          0.63996605	          0.41575174	          0.52766269	          0.48923232	          0.28801091	          0.23960018	          0.23667982	          0.18992410	          0.46621640	          0.55900627	          0.05031248	          0.19388133	          0.51958828	          0.47728988	          0.87338423	          0.52048473	          0.32648330	          0.68161627	          0.78276823	          0.69701730	          0.26850732	          0.17758658	          0.05033214	
          1.28159294	         -4.89084155	         -9.93810560	         -7.84443896	          0.83450663	          1.02857442	         -0.02393501	         17.34991905	         -5.76204288	         12.57429136	         -4.08740735	         -0.92098872	         -6.98444026	        -27.45838727	        -26.71589909	          3.60212331	         -0.14370209	         -7.46221328	         12.13911036	         23.55899714	          1.15782173	         -6.17345514	          8.32556097	         12.36451248	        -13.98609609	        -13.54800712	          3.23626315	         26.31120934	        -13.46769131	         -0.88293579	          6.40861516	         83.41143805	          0.65341687	          0.78492034	          0.64331496	          0.66811366	          0.68796256	          0.67826625	          0.30563984	          0.32862147	          0.31993678	          0.15918842	          0.44260174	          0.09436149	          0.27861261	          0.41721478	          0.50070986	          0.51647267	          0.54861695	          0.45334050	          0.38164664	          0.57610417	          0.32876515	          0.34631525	          0.05269597	          0.05609180	          0.47050070	          0.54787715	          0.61906038	          0.75203299	          0.65085832	          0.68346252	          0.25465638	          0.87855460	          0.87027806	          0.34749184	          0.86414321	          0.63370782	          0.65903848	          0.08297674	          0.52579515	          0.57954872	          0.38449359	          0.12304273	          0.39496562	          0.18596233	          0.05012251	          0.05040712	          0.62063678	          0.39868632	          0.24500142	          0.61915633	          0.57868471	          0.52171996	          0.53731006	          0.45525478	          0.44726592	          0.63949178	          0.58359625	          0.59594227	          0.59235324	          0.54382899	          0.52726843	          0.47356309	          0.63314215	          0.60591600	          0.58829780	          0.54173622	          0.46527471	          0.39084021	          0.62942904	          0.66048415	          0.46680912	          0.54216282	          0.50516030	          0.29167961	          0.25860859	          0.25479521	          0.19984980	          0.43848833	          0.54664692	          0.05036776	          0.12660587	          0.51913395	          0.47831503	          0.91105311	          0.49250167	          0.32527110	          0.67712947	          0.80665980	          0.68818829	          0.24046578	          0.16832740	          0.05038820	
